<?xml version="1.0" encoding="UTF-8"?>
<!DOCTYPE svg PUBLIC "-//W3C//DTD SVG 1.1//EN" "http://www.w3.org/Graphics/SVG/1.1/DTD/svg11.dtd">
<!-- Creator: CorelDRAW 2019 (64-Bit) -->
<svg xmlns="http://www.w3.org/2000/svg" xml:space="preserve" width="14.3933mm" height="3.3511mm" version="1.1" style="shape-rendering:geometricPrecision; text-rendering:geometricPrecision; image-rendering:optimizeQuality; fill-rule:evenodd; clip-rule:evenodd"
viewBox="0 0 470.89 109.63"
 xmlns:xlink="http://www.w3.org/1999/xlink"
 xmlns:xodm="http://www.corel.com/coreldraw/odm/2003">
 <defs>
  <style type="text/css">
   <![CDATA[
    .fil1 {fill:#373435}
    .fil0 {fill:#ED3237}
    .fil2 {fill:#FEFEFE;fill-rule:nonzero}
   ]]>
  </style>
 </defs>
 <g id="Layer_x0020_1">
  <metadata id="CorelCorpID_0Corel-Layer"/>
  <path class="fil0" d="M90.51 74.37c-0.21,0.58 -0.42,1.15 -0.65,1.71l5.07 5.23 -1.97 3.41 -1.97 3.41 -7.07 -1.78c-2.2,2.82 -4.74,5.37 -7.56,7.56l1.78 7.07 -3.41 1.97 -3.41 1.97 -5.22 -5.07c-3.27,1.33 -6.73,2.27 -10.34,2.77l-1.99 7.01 -3.94 0 -3.94 0 -1.99 -7.01c-3.61,-0.5 -7.08,-1.44 -10.34,-2.77l-5.22 5.07 -3.41 -1.97 -3.41 -1.97 1.78 -7.07c-2.82,-2.2 -5.37,-4.74 -7.56,-7.56l-7.07 1.78 -1.97 -3.41 -1.97 -3.41 5.08 -5.23c-1.33,-3.27 -2.27,-6.73 -2.76,-10.34l-7.02 -1.99 0 -3.94 0 -3.94 7.02 -1.99 0 0.02c0.49,-3.62 1.44,-7.09 2.77,-10.36l-0 0.01 -5.08 -5.24 1.97 -3.41 1.97 -3.41 7.07 1.78 -0.06 0.1c2.24,-2.89 4.84,-5.49 7.73,-7.73l-0.12 0.07 -1.78 -7.08 3.41 -1.97 3.41 -1.97 5.23 5.08 -0.08 0.05c3.32,-1.36 6.85,-2.32 10.53,-2.81l-0.13 0 1.99 -7.02 3.94 0 3.94 0 0.93 3.28 -4.63 13.49c-0.08,0 -0.16,-0 -0.24,-0 -18.26,0 -33.06,14.8 -33.06,33.06 0,18.26 14.8,33.06 33.06,33.06 13.04,0 24.31,-7.55 29.69,-18.52l5.05 0 2.1 0 3.84 0z"/>
  <path class="fil1" d="M75.16 73.53l-0.81 1.41 -5.38 -3.11 0.81 -1.41 5.38 3.11zm-49.87 -28.79l-0.81 1.41 5.38 3.11 0.81 -1.41 -5.38 -3.11zm39.63 39.63l-1.41 0.81 -3.11 -5.38 1.41 -0.82 3.11 5.39zm-28.79 -49.87l-1.41 0.81 3.11 5.38 1.41 -0.81 -3.1 -5.38zm0 50.68l-1.41 -0.81 3.11 -5.38 1.41 0.81 -3.1 5.38zm-10.84 -10.24l-0.81 -1.41 5.38 -3.11 0.81 1.41 -5.38 3.11zm-4.26 -14.29l0 -1.63 6.21 0 0 1.63 -6.21 0zm27.98 27.98l1.63 0 0 -6.21 -1.63 0 0 6.21zm29.61 -27.98l0 -1.63 -6.22 0 0 1.63 6.22 0z"/>
  <path class="fil2" d="M132.01 23.97l0 17.51 3.17 0c3.38,0 5.88,-0.65 7.49,-1.94 1.61,-1.28 2.43,-3.28 2.43,-5.98 0,-2.87 -0.94,-5.18 -2.81,-6.95 -1.88,-1.77 -4.35,-2.65 -7.4,-2.65l-2.88 0zm-70.34 15.46l16.86 0 -8.84 -24.48 -8.02 24.48zm-19.46 28.88l23.45 -68.31 18.48 0 25.02 68.31 -20.33 0 -7.2 -20.19 -22.93 0 -6.78 20.19 -9.71 0zm76.01 -0.03l0 -50.58 20.22 0c6.48,0 11.5,1.42 15.08,4.27 3.58,2.85 5.37,6.85 5.37,12.01 0,4.21 -1.44,7.56 -4.29,10.04 -2.87,2.49 -6.72,3.73 -11.58,3.73l-11.01 0 0 20.53 -13.79 0zm62.28 -44.31l0 17.51 3.18 0c3.38,0 5.87,-0.65 7.49,-1.94 1.61,-1.28 2.43,-3.28 2.43,-5.98 0,-2.87 -0.94,-5.18 -2.82,-6.95 -1.88,-1.77 -4.35,-2.65 -7.4,-2.65l-2.88 0zm-13.79 44.31l0 -50.58 20.22 0c6.48,0 11.5,1.42 15.08,4.27 3.58,2.85 5.37,6.85 5.37,12.01 0,4.21 -1.43,7.56 -4.29,10.04 -2.87,2.49 -6.73,3.73 -11.58,3.73l-11.01 0 0 20.53 -13.79 0zm48.49 0l0 -50.58 14.18 0 0 43.76 18.36 0 0 6.82 -32.53 0zm54.84 0l-14.17 0 0 -50.58 14.17 0 0 50.58zm20.46 -21.38l12.48 0 -6.55 -18.12 -5.94 18.12zm-14.41 21.38l17.37 -50.58 13.68 0 18.53 50.58 -15.05 0 -5.33 -14.95 -16.98 0 -5.02 14.95 -7.19 0zm55.45 0l0 -50.58 15.57 0 16.73 25.87 0 -25.87 7.59 0 0 50.58 -8.24 0 -24.14 -36.96 0 36.96 -7.51 0zm98.75 -12.34c-2.12,4.42 -5.14,7.79 -9.06,10.1 -3.91,2.32 -8.55,3.49 -13.89,3.49 -3.46,0 -6.66,-0.49 -9.61,-1.47 -2.96,-0.98 -5.6,-2.44 -7.95,-4.35 -3.15,-2.54 -5.51,-5.51 -7.09,-8.91 -1.58,-3.4 -2.36,-7.15 -2.36,-11.28 0,-7.87 2.57,-14.32 7.69,-19.35 5.14,-5.02 11.74,-7.54 19.8,-7.54 4.64,0 8.68,0.93 12.12,2.78 3.44,1.86 6.42,4.72 8.95,8.6l-6.43 4.74c-1.54,-3.28 -3.42,-5.74 -5.63,-7.38 -2.22,-1.64 -4.75,-2.45 -7.6,-2.45 -4.36,0 -7.73,1.76 -10.14,5.28 -2.39,3.51 -3.59,8.48 -3.59,14.91 0,5.92 1.37,10.7 4.12,14.33 2.75,3.63 6.35,5.45 10.82,5.45 2.81,0 5.38,-0.92 7.71,-2.74 2.32,-1.84 4.35,-4.53 6.08,-8.12l6.06 3.94zm7.99 12.34l0 -50.58 31.68 0 0 6.81 -17.51 0 0 14.72 16.58 0 0 6.82 -16.58 0 0 15.41 18.44 0 0 6.82 -32.61 0z"/>
  <path class="fil2" d="M109.16 101.62l0 -27.25 11.89 0c3.42,0 6.1,0.74 8.06,2.23 1.95,1.49 2.92,3.52 2.92,6.1 0,1.88 -0.53,3.44 -1.59,4.63 -1.06,1.2 -2.64,2.06 -4.75,2.56l6.59 11.73 -8.53 0 -6.65 -13.85 1.71 0c1.89,0 3.3,-0.41 4.21,-1.22 0.92,-0.81 1.38,-2.03 1.38,-3.68 0,-1.74 -0.47,-3.02 -1.43,-3.87 -0.95,-0.83 -2.43,-1.25 -4.45,-1.25l-1.93 0 0 23.87 -7.43 0zm27.91 0l0 -27.25 17.07 0 0 3.67 -9.43 0 0 7.93 8.93 0 0 3.67 -8.93 0 0 8.3 9.93 0 0 3.67 -17.57 0zm30.67 -23.87l0 9.43 1.71 0c1.82,0 3.17,-0.35 4.03,-1.04 0.87,-0.69 1.31,-1.77 1.31,-3.22 0,-1.54 -0.51,-2.79 -1.52,-3.74 -1.01,-0.96 -2.34,-1.43 -3.98,-1.43l-1.55 0zm-7.43 23.87l0 -27.25 10.89 0c3.49,0 6.2,0.77 8.12,2.3 1.93,1.54 2.89,3.69 2.89,6.47 0,2.27 -0.77,4.08 -2.31,5.41 -1.54,1.34 -3.62,2.01 -6.24,2.01l-5.93 0 0 11.06 -7.43 0zm27.79 -11.52l6.73 0 -3.53 -9.76 -3.2 9.76zm-7.76 11.52l9.35 -27.25 7.37 0 9.98 27.25 -8.11 0 -2.87 -8.05 -9.14 0 -2.71 8.05 -3.87 0zm37.59 0l-7.64 0 0 -27.25 7.64 0 0 27.25zm6.68 0l0 -27.25 11.89 0c3.42,0 6.1,0.74 8.06,2.23 1.95,1.49 2.92,3.52 2.92,6.1 0,1.88 -0.53,3.44 -1.59,4.63 -1.06,1.2 -2.64,2.06 -4.75,2.56l6.58 11.73 -8.53 0 -6.65 -13.85 1.71 0c1.89,0 3.3,-0.41 4.21,-1.22 0.92,-0.81 1.38,-2.03 1.38,-3.68 0,-1.74 -0.47,-3.02 -1.43,-3.87 -0.95,-0.83 -2.43,-1.25 -4.45,-1.25l-1.93 0 0 23.87 -7.43 0z"/>
  <path class="fil0" d="M470.89 93.3l-215.03 0 0 3.39 215.03 0 0 -3.39zm0 -14.94l-215.03 0 0 10.8 215.03 0 0 -10.8z"/>
 </g>
</svg>
